# xmcd
#
# Track frame offsets:
#	150
#	15315
#	23727
#	39932
#	54986
#	66269
#	77284
#	91717
#	103300
#	121438
#	136768
#
# Disc length: 2064 seconds
#
# Revision: 0
# Processed by: cddbd v1.5.2PL0 Copyright (c) Steve Scherf et al.
# Submitted via: EasyCDDAExtractor 8.2.3.1
#
DISCID=78080e0b
DTITLE=Wendel Adkins - Honky Tonkin' Texas Style  Hell Yeah!
DYEAR=1979
DGENRE=Country
TTITLE0=T For Texas
TTITLE1=That's Alright and My Baby Left Me
TTITLE2=If This Is Just A Game
TTITLE3=Johnny Cash Medley
TTITLE4=Back To Luckenback
TTITLE5=After The Fire Is Gone
TTITLE6=Looking For A Feeling
TTITLE7=Texas When I Die
TTITLE8=Love's Cheatin' Line
TTITLE9=Honky Tonkin'
TTITLE10=Turn My Head Around
EXTD=
EXTT0=
EXTT1=
EXTT2=
EXTT3=
EXTT4=
EXTT5=
EXTT6=
EXTT7=
EXTT8=
EXTT9=
EXTT10=
PLAYORDER=
